<?xml version="1.0" encoding="UTF-8" standalone="no"?>
<svg
   xmlns:dc="http://purl.org/dc/elements/1.1/"
   xmlns:cc="http://creativecommons.org/ns#"
   xmlns:rdf="http://www.w3.org/1999/02/22-rdf-syntax-ns#"
   xmlns:svg="http://www.w3.org/2000/svg"
   xmlns="http://www.w3.org/2000/svg"
   xmlns:sodipodi="http://sodipodi.sourceforge.net/DTD/sodipodi-0.dtd"
   xmlns:inkscape="http://www.inkscape.org/namespaces/inkscape"
   viewBox="0 0 1058.027 327.41653"
   id="svg2"
   version="1.1"
   inkscape:version="0.91 r13725"
   sodipodi:docname="grass-back.svg"
   width="1058.027"
   height="327.41653">
  <sodipodi:namedview
     pagecolor="#ffffff"
     bordercolor="#666666"
     borderopacity="1"
     objecttolerance="10"
     gridtolerance="10"
     guidetolerance="10"
     inkscape:pageopacity="0"
     inkscape:pageshadow="2"
     inkscape:window-width="1920"
     inkscape:window-height="1031"
     id="namedview382"
     showgrid="false"
     inkscape:zoom="1.1592967"
     inkscape:cx="626.35503"
     inkscape:cy="214.06851"
     inkscape:window-x="1920"
     inkscape:window-y="0"
     inkscape:window-maximized="1"
     inkscape:current-layer="svg2"
     fit-margin-top="0"
     fit-margin-left="0"
     fit-margin-right="0"
     fit-margin-bottom="0"
     showguides="true"
     inkscape:guide-bbox="true" />
  <metadata
     id="metadata384">
    <rdf:RDF>
      <cc:Work
         rdf:about="">
        <dc:format>image/svg+xml</dc:format>
        <dc:type
           rdf:resource="http://purl.org/dc/dcmitype/StillImage" />
        <dc:title></dc:title>
      </cc:Work>
    </rdf:RDF>
  </metadata>
  <defs
     id="defs4">
    <linearGradient
       id="linearGradient3615">
      <stop
         id="stop7"
         stop-color="#80c93b"
         offset="0" />
      <stop
         id="stop9"
         stop-color="#2b4900"
         offset="1" />
    </linearGradient>
  </defs>
  <path
     inkscape:connector-curvature="0"
     d="m 1012.5836,122.10089 c -1.954,13.41997 -22.10194,47.91257 -40.73231,75.65836 9.28435,-9.77742 21.50968,-19.11146 35.65021,-25.44623 -0.1579,-0.95743 -0.3166,-1.89746 -0.5311,-2.81511 0.328,0.87367 0.6219,1.75406 0.9172,2.62804 9.2094,-4.07456 22.1325,-4.81651 33.2145,-4.88403 -9.2267,1.2585 -21.1359,4.83566 -30.8254,11.49552 5.6642,23.62426 0.7313,47.55709 -8.0616,65.39683 19.5851,-27.07087 43.9916,-58.63563 55.8119,-65.2734 -9.6779,12.49257 -25.603,35.74889 -40.149,58.17247 4.4581,-4.2255 9.3919,-8.16766 14.8224,-11.5218 0,0 -77.75798,101.90498 -77.75798,101.90498 0,0 -845.88682,-2.72966 -845.88682,-2.72966 0,0 -47.159021,-49.67824 -47.159021,-49.67824 -9.044236,-13.39314 -24.274175,-32.42758 -41.459359,-43.6741 0,0 -5.207047,-5.4852 -5.207047,-5.4852 4.011257,1.1812 8.283032,2.40975 11.925886,4.28044 14.07441,7.22778 25.547475,18.58327 34.094454,28.99297 -13.385999,-18.25072 -30.955636,-40.54653 -40.298168,-51.37337 2.241379,0.76194 4.992653,2.45056 8.086105,4.78087 0.974407,0.73397 1.828829,3.65059 2.866161,4.50947 1.11472,0.92265 -0.915509,-3.5705 0.259347,-2.52099 8.174346,7.3026 18.56882,18.18283 27.78249,29.12879 -3.913312,-9.46938 -6.420077,-20.87961 -6.077432,-33.91346 0.04344,-1.6532 2.07546,2.07653 2.25034,0.3712 0.128964,-1.25807 -1.185916,-8.2499 -1.002031,-9.53694 0.753644,-5.27559 2.698516,-11.22375 4.614749,-16.94151 -5.69338,28.99386 11.993398,65.67176 25.318049,80.4617 0,0 15.303927,20.13872 15.303927,20.13872 0,0 33.44081,15.06161 33.44081,15.06161 0,0 -14.74784,-23.56978 -14.74784,-23.56978 0,0 23.86104,17.45881 23.86104,17.45881 -16.01584,-21.75614 -75.750083,-121.69773 -77.217187,-137.83189 6.030712,11.48928 18.342323,30.09754 30.925099,47.55393 -4.501055,-10.64308 -7.487342,-20.34631 -6.395356,-25.62033 6.189473,13.7457 24.339824,43.20324 35.587874,58.03546 0,0 5.17514,-3.28408 5.17514,-3.28408 -7.11302,-13.57652 -20.41174,-34.62506 -27.76422,-43.13753 4.47775,1.0539 11.11938,7.30528 17.56976,14.98263 -5.88514,-11.60088 -12.3881,-23.47094 -18.00861,-32.36855 -1.98246,-3.13834 -6.044739,-1.69828 -7.683357,-3.95825 1.560341,0.95855 7.013497,-2.05974 8.972757,0.0767 4.38352,4.78 9.60034,12.14195 14.86418,20.32376 3.29571,2.781 6.86909,6.76258 10.43175,11.2283 -5.28952,-11.12128 -11.12487,-22.44593 -16.30601,-31.29036 -0.42437,-0.57045 -0.86231,-1.17567 -1.2578,-1.68312 0.1078,0.0309 0.21335,0.0858 0.32323,0.12181 -1.92692,-3.06178 -6.62489,-1.36223 -8.24632,-3.59856 1.5606,0.95851 7.81591,-2.36556 9.71982,-0.17981 2.27904,2.61639 4.7827,5.98627 7.38531,9.8144 3.46937,3.22268 7.22429,7.40883 10.99622,12.06333 -4.65659,-9.29208 -9.56528,-18.42599 -14.23531,-26.3538 -0.82614,-0.81023 -1.65631,-1.58107 -2.50671,-2.33652 -1.59263,-1.4149 -2.22414,-1.35861 -3.90041,-2.5547 -3.43026,-2.44819 -4.68119,-3.71558 -7.45338,-4.74258 3.82924,1.24115 7.4421,2.80396 10.83975,4.64995 -1.6772,-2.71444 -3.30114,-5.25469 -4.85385,-7.51544 3.44921,2.24176 7.58687,6.53395 12.04095,12.03334 1.61927,1.1559 3.64166,2.1356 5.12822,3.43264 11.99305,10.46464 20.48349,24.2073 26.51383,36.30745 -9.00686,-20.8085 -21.46532,-46.50036 -28.28009,-59.13248 2.02464,1.22693 4.35531,3.44173 6.87405,6.38391 0.79329,0.92675 1.01665,3.94973 1.84461,5.01195 0.88951,1.14142 -0.11498,-3.66587 0.80612,-2.38782 6.40604,8.88983 14.13167,21.74726 20.8574,34.37052 -1.85204,-10.07784 -2.00622,-21.70841 0.95186,-34.40756 0.37516,-1.61057 1.20653,2.61699 1.68489,0.97055 0.20871,-0.71758 0.6002,-3.5509 0.74209,-5.9523 -0.29838,-0.46544 -0.6085,-0.98521 -0.89169,-1.40943 0.31257,0.11578 0.62517,0.24951 0.94942,0.4089 0.0848,-1.23751 0.19201,-2.31543 0.33162,-2.71471 1.00355,-2.87006 2.59992,-6.00292 3.99275,-8.94625 -1.74838,-3.55074 -3.46808,-6.84744 -5.09938,-9.73781 1.91962,1.50322 4.03162,3.76602 6.24725,6.55918 -0.0569,-0.63556 -0.015,-1.22414 0.11927,-1.76321 0.65333,-2.62614 3.40495,-1.99868 5.38815,-0.81885 5.6029,1.27294 11.17339,2.68919 15.89552,4.63073 0.26308,0.10813 0.73228,0.44694 1.30475,0.86788 -2.11727,-5.34701 -4.20887,-10.45169 -6.2257,-15.10008 -0.64337,-1.48337 -2.37426,-5.42269 -2.94468,-5.45677 -1.66557,-0.0995 -2.51987,7.70911 -4.12959,4.76026 1.21933,0.9828 1.34602,-6.49248 3.88223,-7.29731 0.4699,-0.14844 1.03625,-0.077 1.74167,0.30521 1.81925,0.98585 3.03406,3.45873 5.14394,6.94447 3.38529,5.59335 6.98681,12.28819 10.57529,19.4508 10.89207,5.94924 19.22538,13.52925 25.27539,21.30963 -4.94824,-13.42489 -9.66977,-27.66938 -12.1874,-38.33762 -0.36169,-1.53333 2.61111,2.37571 2.3319,0.95589 -0.25988,-1.32142 -2.41539,-3.4641 -2.59558,-4.6705 -0.57173,-3.83063 -0.12746,-7.27657 0.30711,-9.60368 4.85806,13.45014 15.61025,39.75459 25.36574,60.17798 -5.13338,-12.45268 -9.83836,-27.79803 -9.85902,-43.61984 -0.0113,-8.74618 2.49683,-18.01814 6.35289,-26.553577 -1.36409,3.14424 -1.75536,5.08048 -2.17076,9.593837 -0.18883,2.05049 -0.65082,2.47279 -0.61941,4.60294 0.3601,24.41827 19.61414,63.07023 28.48822,78.0377 0,0 8.92239,-14.74274 8.92239,-14.74274 -7.23134,-20.06503 -16.3382,-49.56587 -19.75329,-69.70315 -0.68143,-4.017197 -1.39027,-6.721757 -0.65767,-8.656877 0.34097,-0.90054 0.83847,-1.3168 1.41144,-1.44202 2.48306,-0.54289 6.52966,4.73857 6.77841,3.25123 0.75607,3.2735 -4.40467,-2.26039 -5.60022,-1.09653 -0.40967,0.39875 0.84228,4.53689 1.32459,6.08016 3.55076,11.362387 8.38487,24.928617 13.44399,38.040537 -0.27204,-1.87551 -0.51792,-3.714 -0.71733,-5.5026 -1.75215,-8.78281 -2.26807,-16.37833 -0.95726,-20.29027 0.26371,1.13245 0.55429,2.40529 0.9096,3.74021 0.29798,-1.7629 0.74254,-3.27419 1.34862,-4.45003 1.28022,8.3981 4.86403,22.62891 8.98626,36.55948 2.39759,6.69579 4.8921,13.29738 7.21698,19.06269 0,0 22.14685,22.64311 22.14685,22.64311 -4.03354,-16.69196 -23.03195,-74.59496 -40.50601,-94.554327 -6.28367,-7.177295 -10.8815,-1.43861 -17.85725,-4.8108 8.96692,2.97971 14.67425,-4.168335 21.56843,1.09356 14.29835,10.912967 24.75163,25.593707 31.36785,39.411157 -4.03207,-14.50383 -7.83092,-30.191777 -10.49429,-45.929652 -1.382,-8.168925 -15.11521,-32.92818 -14.51134,-37.132041 1.29953,4.937531 12.12264,7.838245 14.14841,14.771217 2.15356,7.37022 1.29213,13.789204 4.01658,22.344804 3.05384,9.589305 6.83098,19.747022 10.30517,29.779482 -1.33304,-12.22622 -0.25165,-25.519162 4.63313,-38.045358 2.62801,-6.738932 15.49712,-5.292392 20.88431,-11.413142 -4.01816,5.971888 -15.29173,5.551903 -16.24714,13.926516 -2.99787,26.275614 6.24824,60.052694 12.79958,76.206694 0,0 30.18116,26.2053 30.18116,26.2053 -5.62754,-20.36431 -18.36899,-81.532757 -39.53912,-93.900822 23.00448,9.706325 36.63495,24.694262 44.16674,39.183902 -3.55229,-21.27726 -5.93819,-43.941742 -2.76726,-52.445491 1.48315,8.424029 4.2696,21.760004 7.57245,35.766221 -0.68799,-15.128227 3.61082,-31.416982 16.5576,-45.627195 -0.0692,-0.128567 -0.13405,-0.275232 -0.20368,-0.403112 -4.02838,-7.404014 -14.37057,-2.825154 -20.33749,-6.850586 7.29174,3.649149 18.7506,-2.462257 23.7155,2.797842 9.22534,9.774502 15.23514,21.691249 18.58165,33.521994 -0.53874,-10.597425 -1.25009,-21.396146 -2.17092,-31.412039 -0.8218,-8.941102 -3.31772,-14.620105 -4.08328,-22.26025 3.93549,-36.984484 12.78366,3.4357 8.11364,20.825711 3.42098,15.604443 5.76868,31.591188 7.45577,46.560895 0.60083,-9.561317 2.39187,-20.004052 5.78996,-30.226586 -0.0692,-4.676747 -0.0415,-9.120372 0.12419,-13.14296 0.16768,-4.071242 0.0376,-6.843619 1.15633,-8.584463 2.17958,-3.392493 5.2114,1.731122 6.74627,3.253284 -3.5229,-6.919268 -8.7348,-12.774614 -14.09705,-16.790952 6.70159,3.778713 13.09086,8.419717 17.63658,13.55122 4.27275,-2.407593 11.2879,-1.054245 16.80197,-5.708901 -4.62501,5.062926 -10.39427,2.968326 -13.69026,8.627116 7.07775,9.267786 11.41677,19.786998 14.05452,30.28638 -0.24732,-26.717561 -0.16648,-54.914115 -1.36979,-70.664468 6.2153,12.048162 9.2364,51.813864 10.68727,85.19554 1.68304,-13.401297 5.76883,-28.178719 13.46655,-41.658788 -4.33882,-8.377986 -10.24014,-15.543879 -16.14516,-20.444608 7.12324,4.498255 13.90272,9.893971 18.9564,15.814912 4.63042,-7.108779 11.26062,-13.723124 18.50854,-19.438565 -5.7967,5.935127 -11.22082,14.399705 -14.79087,24.074787 9.66067,12.938285 15.54666,27.893315 18.7297,41.523802 -1.16317,-19.033432 -1.53158,-40.204413 -0.8697,-57.207825 -0.16085,-0.133626 -1.11538,-0.250173 -1.27933,-0.395601 0,0 1.2774,0.293404 1.2774,0.293404 0.50035,-12.738832 1.65873,-23.140778 3.8566,-28.511098 0.0893,7.77296 0.64941,18.569024 1.46075,30.659761 5.36317,1.070514 10.91077,-0.500775 14.67769,4.71919 0.42152,0.584184 0.8218,1.164354 1.22742,1.755263 0.62256,-0.917534 1.28496,-1.826029 1.96013,-2.722798 -0.10168,-4.876513 -0.29514,-9.313432 -0.6096,-12.937903 1.18118,2.273068 2.19433,5.670796 3.07036,9.845976 2.96805,-3.495221 7.24442,-6.789895 11.22512,-9.764799 C 526.55448,27.05959 519.87647,3.57932 521.41166,0 c -0.0263,5.1056 9.94994,10.89392 10.10087,18.11529 0.1605,7.67673 -1.61284,13.615379 -1.35154,22.590457 0.41349,14.204281 2.44653,32.34211 4.71942,49.356836 0.16072,0.37401 0.33104,0.76721 0.48457,1.17238 0.64724,-7.569855 2.26033,-15.460415 4.87276,-23.110022 -1.23963,-1.595867 -3.55999,-2.621267 -3.68943,-4.470968 0.42475,0.851914 2.76848,1.350101 4.5473,2.064124 1.13044,-3.011125 2.44631,-5.99027 3.97052,-8.89497 -1.02102,-1.217035 -2.08051,-2.396791 -3.18182,-3.514573 1.22037,0.953736 2.39985,1.922942 3.54241,2.891905 1.57126,-2.924458 3.3337,-5.77408 5.36392,-8.524272 0.1207,-0.163388 0.24401,-0.311163 0.37553,-0.458693 -0.0446,-0.136454 -0.0918,-0.238266 -0.15213,-0.270507 -1.47088,-0.787993 -4.9,5.957248 -5.07866,2.602324 0.80039,1.674578 4.29442,-8.095157 7.36961,-3.982896 0.0136,0.01765 0.026,0.02421 0.0388,0.04182 5.25264,-2.519932 14.9524,0.336656 20.67173,-3.446201 -5.37393,4.654853 -16.03747,1.373221 -19.2749,8.847939 0.0986,0.918005 0.20215,1.93092 0.32672,3.036902 0.43396,3.852423 1.26311,8.130487 1.44779,12.612303 10.13423,11.87767 15.72837,24.217975 18.41703,35.671682 1.79531,-21.499392 5.06214,-44.050038 10.22975,-51.512452 -0.63709,8.541334 -1.20217,22.162321 -1.44868,36.57175 1.82734,-8.899471 5.57728,-17.778189 11.47558,-25.776892 -1.12542,-1.530516 -2.30199,-3.012131 -3.54821,-4.408727 1.41344,1.221805 2.76918,2.453938 4.06898,3.692017 4.45576,-5.860347 11.00161,-11.240821 18.54001,-15.709875 -4.89183,3.83288 -9.42666,9.046902 -12.33421,15.124416 1.17486,2.320428 2.02449,5.82623 2.62401,10.11716 1.04174,1.278042 2.42785,2.578405 3.34842,3.877599 0.51449,-5.610237 0.80405,-10.640137 0.7753,-14.588423 2.03745,3.988693 3.01089,11.652999 3.30652,20.900535 0.18675,0.31566 0.37234,0.62145 0.55374,0.93702 0.85301,-4.910393 1.80529,-9.3129 2.88275,-12.842852 0.34913,-1.143554 1.61844,-1.756651 3.05488,-2.187649 -1.74446,-4.827889 -4.1238,-9.196747 -7.29315,-12.868209 4.27122,3.816369 7.77081,7.860806 10.6206,12.021399 0.79805,-0.234174 1.43949,-0.516557 1.70226,-0.922788 -0.135,0.737898 -0.55181,1.309548 -1.08467,1.82503 1.99838,3.032045 4.08775,6.225533 5.39926,9.389896 2.09254,-8.712084 4.488,-15.711692 7.15301,-19.18194 -0.99101,7.97035 -2.15164,20.384746 -3.08035,33.759348 0.0672,0.42039 0.1383,0.8573 0.19765,1.27752 0.93671,-3.39014 2.09916,-6.762015 3.54998,-10.067215 0.94197,-6.752191 1.70637,-12.787619 2.1784,-17.34186 0.98789,2.165895 2.14106,5.395406 2.50192,9.280851 2.15839,-3.359793 4.69023,-6.59811 7.65232,-9.637182 -1.53887,-7.040691 -4.99258,-13.54055 -9.2244,-18.609134 5.13866,4.745596 9.83999,9.971262 12.80281,15.22177 3.44758,-3.014319 8.16098,-5.68603 12.71204,-8.088768 -4.09211,2.892017 -8.26535,6.648434 -11.10826,11.143126 3.94141,8.012071 6.18261,16.419177 6.61091,24.579442 0.4014,-0.35123 0.81579,-0.689655 1.2278,-1.037985 2.25607,-11.928877 4.10451,-22.917669 5.10523,-30.219449 1.95672,4.693289 2.32415,13.924205 1.80662,24.874809 1.43578,-1.00815 3.34067,-1.9477 4.90135,-2.89221 0.0284,-0.703592 0.0659,-1.441893 0.0775,-2.079408 0.31073,0.445461 0.59899,0.953376 0.86997,1.510102 2.03461,-1.202712 4.14473,-2.363063 6.36744,-3.490113 -2.04336,1.394258 -4.00485,2.936306 -5.89974,4.602759 1.22649,3.08234 1.9761,7.42008 2.4025,12.471705 0.54554,-0.64721 1.12299,-1.27476 1.69742,-1.91679 0.49124,-4.977055 0.82846,-9.426285 0.89071,-12.842022 0.75682,1.08508 1.37459,2.540987 1.90392,4.248777 0.17512,-1.37023 0.33379,-2.663868 0.445,-3.821304 0.17752,0.361554 0.34368,0.767938 0.49408,1.199814 0.0807,-0.4264 0.17295,-0.86057 0.25172,-1.284413 -1.49381,-2.749744 -3.15779,-5.385609 -4.99616,-7.822791 1.90401,1.941239 3.69365,3.918181 5.35735,5.872789 1.28777,-7.070078 2.36014,-13.717566 3.11967,-19.477393 -1.92012,-4.717138 -4.22216,-8.969913 -6.90639,-12.528408 2.71564,2.768768 5.18605,5.652376 7.40424,8.632889 0.21009,-1.84326 0.35735,-3.572568 0.48235,-5.161621 0.62635,1.927316 1.03079,4.536094 1.26452,7.644555 0.484,0.701471 0.96113,1.408123 1.42052,2.118518 1.54109,-1.46588 4.14135,-2.363303 5.32634,-0.162696 0.98103,1.821975 0.63778,4.576087 0.49123,8.647962 -0.01,0.254373 -0.0259,0.504739 -0.0365,0.762085 0.1627,0.345884 0.32565,0.696378 0.48363,1.043273 0.0867,-0.782359 0.1632,-1.557669 0.2344,-2.304971 0.45595,1.485978 0.81274,3.270809 1.06072,5.282048 0.5095,1.230252 0.99311,2.471294 1.44749,3.710941 2.95783,-1.816762 6.76332,-3.445394 10.16737,-5.032911 -3.1346,1.990844 -6.70745,4.245964 -9.48311,6.881243 4.35727,12.659656 6.06703,25.777843 6.0441,37.574243 5.66338,-32.929672 13.69636,-72.01351 21.38612,-83.178352 -2.15556,10.465104 -3.81298,26.794031 -6.51466,44.316274 0.32674,-0.427281 0.66512,-0.820276 0.99014,-1.166654 -0.33826,1.495778 -0.71839,3.197193 -1.09599,4.991342 1.5694,1.971748 3.03828,3.934218 4.39197,5.902048 6.92812,-10.895999 18.41355,-20.250445 32.53516,-26.008827 -9.20433,5.229302 -17.40703,15.193229 -23.10356,26.999247 2.9378,-3.04473 6.23143,-5.84178 9.87114,-8.343402 -2.36519,1.773923 -3.20318,3.345042 -5.79467,6.668682 -1.26618,1.62385 -1.8877,1.74976 -3.01155,3.55962 -1.47547,2.375955 -2.83373,4.900595 -4.0795,7.529405 0.0765,0.001 0.14808,0.0907 0.25701,0.3117 5.75999,11.697727 8.25251,22.979167 8.706,33.215737 3.72583,-13.80943 8.08461,-28.134017 12.19891,-38.289717 0.59154,-1.46008 0.76124,3.42837 1.35453,2.1086 0.55221,-1.22843 0.0327,-4.222955 0.58348,-5.311325 1.00266,-1.98133 2.01363,-3.6941 2.99853,-5.12888 -0.90774,-2.46292 -2.02817,-4.809215 -3.40314,-6.982259 1.57882,1.898909 2.9952,3.821249 4.29016,5.750169 0.42907,-0.54815 0.85044,-1.0302 1.27275,-1.451651 -0.19665,0.753571 -0.42433,1.620971 -0.63417,2.454111 3.31769,5.13811 6.18003,10.540235 7.68792,15.793175 4.30089,-5.2316 10.01529,-9.786135 16.11997,-13.556285 -2.4491,1.65618 -3.36287,3.18444 -6.11375,6.377425 -1.34408,1.56008 -2.5127,1.52948 -3.69505,3.30168 -1.85428,2.77922 -3.56445,5.77852 -5.10502,8.918187 1.49086,7.54058 1.64227,15.05321 0.64067,22.2043 4.59757,-13.65859 8.61151,-26.686487 10.87405,-34.947307 2.36882,8.76798 -2.09519,31.118897 -7.61448,51.986727 6.0507,-9.39904 14.88158,-18.80669 27.45988,-26.20005 3.69663,-7.81237 7.39132,-14.04655 10.67131,-17.016467 -0.31663,-8.39137 -2.73032,-16.375105 -6.26658,-22.617286 7.44403,9.896521 12.63662,21.004516 13.94092,31.568493 0.67095,-0.22588 1.33546,-0.43796 2.02109,-0.6548 -0.66623,0.31029 -1.32876,0.65282 -1.98624,0.99027 1.00388,8.44344 0.53781,16.8116 -0.79324,24.78213 10.4606,-24.59195 21.77518,-50.440612 26.96163,-65.365018 0.3797,5.784289 -1.81522,15.999796 -5.37715,28.222651 5.49789,4.30037 15.38533,5.432207 16.89727,11.425677 0.39196,1.5537 1.34892,3.3857 1.60432,4.94291 3.52927,-2.03612 7.25093,-3.87386 11.17763,-5.43463 0.13097,-1.29069 0.2371,-2.56411 0.29603,-3.83563 0.0985,-2.12802 -0.34982,-2.564767 -0.47387,-4.620157 -0.27297,-4.52424 -9.5e-4,-6.22913 -1.2168,-9.43358 2.20932,5.56979 4.33521,11.53533 4.87062,17.187487 0.62864,-0.21373 1.27931,-0.4056 1.91767,-0.60583 0.94332,-3.12518 1.87458,-6.171597 3.322,-9.374737 2.97427,-6.58206 13.07967,-8.539665 14.98126,-13.278005 0.0779,4.2463 -16.60043,27.119522 -18.98491,35.053842 -0.47819,1.5912 -1.00024,3.18832 -1.5017,4.7748 -1.28343,10.8684 -4.5081,21.25369 -8.23329,30.40295 0.4584,-0.60307 0.89473,-1.20269 1.36776,-1.80319 9.29536,-18.65266 19.54644,-39.73351 24.36811,-51.322507 0.32315,2.345167 0.0644,5.569357 -0.6328,9.379227 -0.21955,1.19987 -2.42582,3.27843 -2.72895,4.59073 -0.32566,1.40989 2.76351,-2.42622 2.3516,-0.90564 -1.72993,6.38583 -4.30809,14.07574 -7.26206,22.06156 3.62613,-3.00233 8.01192,-5.55464 12.20738,-8.00147 5.40132,-3.15018 9.76731,0.16636 14.86567,1.43606 1.16608,-0.85138 2.23758,-1.62135 2.73525,-1.83922 -0.82491,-0.91917 -1.52773,-1.90351 -1.98289,-3.06319 0.60828,1.10425 1.43365,2.04836 2.36684,2.9035 3.20537,-1.17981 7.31301,-1.83122 10.90205,-2.69092 0.47745,-1.15576 0.92154,-2.28908 1.32188,-3.33417 0.0243,0.9024 -0.0371,1.93556 -0.16194,3.05486 1.54811,-0.35335 3.11291,-0.68521 4.73065,-0.98281 -1.62543,0.5232 -3.22956,1.10641 -4.82496,1.77718 -0.0209,0.15417 -0.055,0.32688 -0.0782,0.48442 0.23343,-0.1945 0.46456,-0.3828 0.6901,-0.55193 -0.26623,0.4497 -0.54502,0.94148 -0.82,1.41997 -0.3599,2.13728 -0.9395,4.53636 -1.66825,7.18536 2.74976,1.71398 5.59192,3.95274 5.99444,6.81887 1.86885,13.30697 -0.10201,26.42695 -4.19708,38.01742 5.67744,-8.96455 11.32996,-18.19308 16.3598,-26.90324 4.49014,-7.77559 5.74814,-13.84433 9.53323,-20.52499 3.56054,-6.28431 14.7232,-6.69103 17.11438,-11.20217 -0.37074,4.2308 -19.3607,25.19777 -22.5694,32.83607 -6.1904,14.7363 -13.49694,29.19931 -20.74016,42.41634 9.21949,-11.49207 22.09731,-22.94623 37.62582,-30.39641 4.6762,-6.15981 8.96571,-11.10538 12.45898,-13.95507 2.17844,-9.65903 1.68953,-19.4388 -0.75688,-27.35038 6.75537,14.755 8.75652,30.35043 5.85546,43.71547 1.56409,0.45619 3.83381,1.0525 5.85258,0.92823 12.14336,-17.11564 23.41945,-33.72901 29.84995,-44.34589 0,0 -3e-4,2.1e-4 -3e-4,2.1e-4 m -92.09439,2.11531 c -2.42968,1.09898 -5.47713,2.00693 -7.79679,3.43476 0.16646,0.1087 0.98088,0.5311 1.14828,0.64011 0,0 0.53079,-0.084 0.53079,-0.084 -0.15198,0.049 -0.28281,0.1128 -0.43129,0.15479 0.83573,0.53699 1.69017,1.03723 2.55743,1.53127 1.07346,-1.35077 2.11096,-2.54913 3.09431,-3.58999 0.30909,-0.71028 0.61062,-1.40787 0.89704,-2.08648 0,0 2.3e-4,-4.2e-4 2.3e-4,-4.2e-4 m 50.75555,27.15236 c -1.89559,2.90811 -3.95915,6.25806 -6.12147,9.91963 1.03146,-0.0145 2.01066,0.16988 2.95651,0.45608 1.22546,-3.46277 2.30389,-6.94317 3.16496,-10.37571 0,0 0,0 0,0 M 526.73481,37.630089 c -3.89384,4.030531 -7.78414,9.200029 -10.20495,15.076964 0.57823,3.660058 1.06386,7.721151 1.49031,12.036559 0.30238,0.607787 0.61731,1.206518 0.90667,1.817277 2.08083,-1.163291 5.79652,-1.588525 6.40382,-2.722676 -0.24555,2.474087 -4.04998,3.408885 -4.83166,6.214732 2.26621,5.24947 4.2753,10.599703 5.63436,15.854963 -0.79809,-15.884722 -1.02763,-32.299541 0.53133,-46.21406 0.0671,-0.598789 0.075,-1.2769 0.0701,-2.063762 0,0 2e-5,1e-6 2e-5,1e-6 m 345.79282,68.091523 c -0.48278,0.26187 -0.95283,0.52285 -1.43501,0.80352 0.0832,1.08254 0.13774,2.15025 0.17224,3.2296 0.4626,-1.37892 0.86477,-2.7179 1.26277,-4.03312 0,0 0,0 0,0 m 136.22917,74.08641 c -15.51563,10.97934 -37.46839,36.92031 -52.16924,57.43883 0,0 -16.86155,42.68025 -16.86155,42.68025 0,0 36.3799,-13.8351 36.3799,-13.8351 12.87644,-15.66864 33.20579,-56.8968 32.65089,-86.28398 0,0 0,0 0,0 M 837.69309,95.461383 c -4.76914,16.284517 -11.94269,36.030407 -18.7524,53.730337 7.17497,-12.08871 17.29322,-24.48504 30.4806,-33.93577 0.20381,-2.32635 0.33632,-4.61525 0.36156,-6.8697 0.0769,-6.92726 -7.74804,-8.971867 -12.08956,-12.924857 0,0 0,0 0,0 M 692.16845,57.687726 c -0.0462,-0.01878 -0.1059,-0.01915 -0.15791,-0.02863 -0.30007,-0.02959 -1.47542,0.02404 -1.88934,0.293739 0.49048,0.782799 1.72895,1.701227 2.1778,2.500738 0.16194,-1.328692 0.22926,-2.50739 -0.003,-2.680473 -0.0417,-0.03136 -0.0809,-0.0672 -0.1273,-0.08498 0,0 7e-5,-3.97e-4 7e-5,-3.97e-4 m 175.0466,50.557537 c -3.4781,2.39659 -6.9202,5.23006 -10.27916,8.42088 0.8612,9.69017 0.0465,19.3137 -2.20637,28.19646 2.61853,-5.11095 5.22066,-10.27788 7.726,-15.41218 2.48914,-6.91222 3.84918,-14.26603 4.75953,-21.20516 0,0 0,0 0,0 m 44.82857,19.80253 c -0.0498,0.0317 -0.10206,0.0567 -0.15126,0.0874 0,0 0.23359,-0.0266 0.23359,-0.0266 0,0 -0.0824,-0.0607 -0.0824,-0.0607 0,0 9e-5,-7e-5 9e-5,-7e-5 m 0.29279,0.22674 c -0.30868,0.0662 -0.61175,0.10308 -0.90665,0.14206 -24.7105,15.83347 -43.27249,46.72696 -45.39825,60.32203 0,0 -6.44319,28.75411 -6.44319,28.75411 0,0 13.41613,-11.83534 13.41613,-11.83534 9.19158,-16.41748 22.8761,-47.23772 27.12161,-61.44148 0.81376,2.32418 1.23296,5.80002 0.73902,9.81497 5.22912,-9.15276 10.37995,-17.34557 14.88212,-23.18407 -0.91084,-0.75921 -2.48228,-1.82064 -3.41079,-2.57228 0,0 0,0 0,0 m 70.37592,38.20725 c -2.11122,0.39494 -4.36642,-0.15064 -5.93047,-0.52246 -1.09841,4.93168 -2.21793,9.96733 -4.08649,14.49499 3.36017,-4.6256 6.70985,-9.31152 10.01696,-13.97253 0,0 0,0 0,0 M 495.17866,46.919132 c 0.8349,12.355472 1.95673,26.023375 3.22981,39.356206 1.31573,-9.24538 4.30289,-18.711721 9.0272,-27.436534 -0.71267,-1.791001 -2.07729,-3.547547 -2.88178,-5.247468 -2.65854,-5.617448 -5.87683,-5.779743 -9.37523,-6.672204 0,0 0,0 0,0 m 411.21011,81.205538 c -3.22182,-0.59738 -6.73703,-1.5379 -11.02093,2.27864 -1.9176,1.70837 -3.81244,3.50551 -5.67908,5.38917 3.45185,-2.43393 7.76212,-4.49021 11.93306,-6.50242 1.48956,-0.7186 -1.289,2.60015 0.29304,1.93953 0.6498,-0.27129 2.6232,-1.7403 4.47391,-3.10492 0,0 0,0 0,0 m 13.02853,6.6529 c -2.27066,7.57688 -5.29675,16.84537 -9.36833,26.24156 2.59876,-2.45761 5.00751,-4.21505 7.13164,-4.95133 -8.02293,11.48207 -22.39355,38.78238 -29.99224,56.44186 0,0 2.33072,1.16991 2.33072,1.16991 9.80884,-12.99826 28.28161,-45.72234 31.58659,-73.43566 0.24625,-2.06515 -0.81682,-4.02384 -1.68838,-5.46634 0,0 0,0 0,0 M 688.25931,63.219595 c -0.0432,4.728605 0.22973,10.161194 -0.31024,15.828023 0.58066,-1.437321 1.17445,-2.772284 1.76513,-4.000942 0.34048,-1.726086 0.65443,-3.43696 0.96579,-5.101567 -0.51144,-2.266159 -1.75649,-4.583653 -2.42061,-6.7255 0,0 -7e-5,-1.4e-5 -7e-5,-1.4e-5 m -270.3528,-8.148092 c -0.1062,3.57e-4 -0.22471,0.03831 -0.31308,0.09333 -0.48342,0.304883 -0.0782,4.608816 0.0731,6.218573 0.11447,1.224073 0.25528,2.489112 0.3858,3.761846 1.10729,-2.413249 2.31268,-4.782574 3.64431,-7.134136 -1.12863,-0.848112 -2.80148,-2.96123 -3.79023,-2.940021 0,0 5e-5,4.13e-4 5e-5,4.13e-4 M 966.8838,165.01915 c -0.88101,0.36935 -1.81685,0.90795 -2.85554,1.65582 -1.17186,0.84362 -2.34462,1.72144 -3.5076,2.62457 -0.11176,0.19956 -0.23523,0.40138 -0.34754,0.6019 1.49455,0.11067 3.59174,0.83913 4.85674,0.99589 0.8238,-1.85065 1.13436,-3.99709 1.85394,-5.87818 0,0 0,0 0,0 M 377.39129,63.634337 c -12.73246,20.671111 -5.84457,56.094563 1.3345,78.514303 0,0 3.76216,-0.61157 3.76216,-0.61157 -1.39151,-15.53903 -5.6058,-38.79252 -9.16562,-49.178087 4.18426,2.51296 8.03135,9.935347 11.32862,18.739107 -1.41588,-17.337187 -3.7729,-35.220163 -6.43327,-45.377632 0.17731,0.201366 0.34843,0.415382 0.52464,0.643598 -0.44799,-0.925794 -0.87872,-1.834726 -1.35103,-2.729719 0,0 0,0 0,0 M 167.43271,124.86932 c -0.0413,0.0193 -0.0779,0.0546 -0.11074,0.0954 -0.35979,0.4442 1.37096,4.40618 2.03172,5.88188 1.07285,2.39673 2.259,4.90494 3.4662,7.47304 4.35574,7.03466 8.83966,15.2338 13.06206,23.56018 -0.0171,-0.0726 -0.0397,-0.1484 -0.0569,-0.22124 -2.77472,-8.51522 -4.21064,-15.90607 -3.37499,-19.94616 0.39674,1.09297 0.84672,2.29538 1.35851,3.57857 0.0369,-0.76949 0.12125,-1.50128 0.22428,-2.1765 -2.26004,-4.33381 -4.36706,-8.11973 -6.14806,-10.96112 1.22676,0.49527 2.53152,1.35819 3.90805,2.49909 -0.60214,-1.24326 -1.16801,-2.39455 -1.70721,-3.42471 3.54621,2.10804 8.17081,8.08485 12.58466,15.87751 1.01137,1.47392 2.04013,3.04773 3.05333,4.63366 -2.02288,-5.64523 -4.11608,-11.32117 -6.23835,-16.82637 -4.89321,-3.94424 -10.49302,-7.14141 -15.97936,-9.60805 0.89568,2.8087 -4.45667,-1.01345 -5.93711,-0.47526 -0.0478,0.0219 -0.0949,0.0211 -0.13617,0.04 0,0 6e-5,8e-5 6e-5,8e-5 m 3.10408,-0.7798 c 1.52114,0.94812 2.82207,1.87218 2.94266,1.20466 -0.96972,-0.43544 -1.9597,-0.82432 -2.94266,-1.20466 0,0 0,0 0,0 M 809.31472,98.659173 c -1.52905,3.597077 -3.1414,8.167467 -4.80325,13.293087 1.44672,-0.72163 2.94631,-1.41079 4.48015,-2.08565 0.32018,-3.81314 0.43607,-7.5737 0.3231,-11.207437 0,0 0,0 0,0 M 757.69849,84.037148 c -3.64225,14.910585 -8.72681,39.082842 -11.84654,58.963332 2.52877,-11.89297 6.7005,-25.56079 14.24422,-37.6227 0.49356,-7.494827 -0.46452,-14.866097 -2.39768,-21.340632 0,0 0,0 0,0 M 601.79737,60.527522 c -0.69556,1.468934 -1.33722,2.984178 -1.93672,4.539689 0.64308,0.683578 1.25479,1.371325 1.86643,2.058068 0.0952,-2.420049 0.10624,-4.62558 0.0703,-6.597757 0,0 0,0 0,0 M 164.236,131.23454 c -0.91501,3.77868 -1.87729,7.89383 -2.16945,11.88149 3.87839,3.01554 8.47142,8.16077 12.87023,14.42377 -2.149,-5.47412 -4.12705,-10.80773 -5.83729,-15.8299 -1.62755,-3.66489 -3.26391,-7.17179 -4.86366,-10.47529 0,0 1.7e-4,-7e-5 1.7e-4,-7e-5 m 800.26522,40.82311 c -1.85927,0.52675 -4.58401,0.35677 -5.89925,2.53062 -3.63531,6.00852 -7.64628,13.34166 -11.59305,21.04065 3.87569,-4.58285 7.87737,-8.47168 11.37567,-11.32043 2.15835,-3.95711 4.21277,-8.05977 6.11663,-12.25084 0,0 0,0 0,0 M 719.6541,79.695708 c -0.4865,2.34698 -0.99945,4.83999 -1.52523,7.5545 -0.62324,4.288465 -1.21914,8.571385 -1.80389,12.847372 1.7813,-4.554667 3.91149,-9.081527 6.46501,-13.432112 -0.94115,-2.39887 -1.97039,-4.72918 -3.13586,-6.96975 0,0 -3e-5,-1e-5 -3e-5,-1e-5 M 425.27105,64.549075 c -2.01905,7.071111 -3.50228,14.579823 -4.56901,22.105813 0.68286,4.865645 1.42787,9.800545 2.21255,14.691052 0.12285,-1.877797 0.24777,-3.730277 0.42305,-5.509167 0.10983,-8.955295 0.92996,-16.423855 2.96897,-20.010196 0.0409,1.162023 0.11867,2.442517 0.21042,3.820951 0.6318,-1.672551 1.66286,-3.10752 2.50122,-4.131016 -0.50164,8.480276 0.0976,23.186011 1.46074,37.649688 1.16683,7.71399 2.48475,15.32493 3.77102,21.82581 0,0 0.87118,-0.0717 0.87118,-0.0717 1.06376,-16.04119 -0.56314,-46.990047 -9.85014,-70.371215 0,0 0,0 0,0 m 223.85259,6.692568 c -5.77288,12.778435 -8.34931,28.59421 -9.28561,42.881497 2.27464,-4.58136 5.05869,-9.23546 8.51886,-13.79128 1.31133,-9.693187 1.82569,-19.765602 0.76675,-29.090217 0,0 0,0 0,0 m -98.59272,-6.885501 c -1.34456,5.488836 -2.36013,11.215632 -3.07761,16.939456 0.28414,2.08611 0.5205,4.30835 0.7158,6.648435 0.3022,1.7688 0.59632,3.59473 0.85294,5.46662 0.84647,-9.589625 1.51818,-19.341393 1.94903,-28.365939 -0.14418,-0.233001 -0.29387,-0.457542 -0.44016,-0.688572 0,0 0,0 0,0 m 68.81853,4.842875 c -0.5526,0.645838 -0.96305,1.415054 -1.08423,2.441185 -0.6382,5.406445 -1.1618,11.636496 -1.54892,18.189241 1.07417,2.43527 1.99536,4.86293 2.80072,7.25541 0.93458,-2.4634 2.00677,-4.5942 3.06651,-6.30034 -0.0556,-7.568065 -1.21878,-14.960425 -3.23408,-21.585496 0,0 0,0 0,0 M 599.02819,67.39908 c -2.46187,7.073784 -4.03409,14.852668 -4.97307,22.689663 1.47829,3.63838 2.5234,8.41963 3.27898,13.717957 0.28535,-7.675547 0.27134,-14.682467 -0.18707,-19.353782 1.04297,1.01804 1.93545,2.47914 2.73654,4.240605 0.69522,-6.004345 1.2576,-11.726234 1.58319,-16.852244 -0.76882,-1.512191 -1.58558,-2.999264 -2.43857,-4.442199 0,0 0,0 0,0 m -129.74277,0.770935 c -6.84305,22.970518 -8.37358,49.783305 -6.71321,64.638675 0,0 27.82787,30.21573 27.82787,30.21573 -0.2393,-15.61838 -11.78808,-73.217137 -21.11466,-94.854405 0,0 0,0 0,0 m 379.09317,57.525935 c -15.64658,18.06871 -28.1479,41.87926 -32.77594,56.04733 0,0 9.58923,3.58368 9.58923,3.58368 6.8115,-10.69718 18.48961,-35.50232 23.18671,-59.63101 0,0 0,0 0,0 m -39.58274,-13.6386 c -1.99493,1.45421 -3.92182,3.04529 -5.80455,4.70937 -2.34888,7.673 -4.66753,16.24818 -6.74547,24.75502 3.27293,-5.76178 6.69904,-10.79281 10.03009,-13.89498 1.09841,-5.1734 1.99072,-10.41588 2.51993,-15.56941 0,0 0,0 0,0 M 672.70172,80.942708 c -1.62707,1.51923 -3.52818,3.10389 -5.0112,4.8148 -0.48095,7.581405 -1.34928,15.792202 -2.37769,23.823852 1.5449,-3.27103 3.36203,-6.5626 5.53677,-9.823017 0.89197,-7.07308 1.56154,-13.630535 1.85212,-18.815635 0,0 0,0 0,0 M 511.41186,70.15425 c -0.78936,3.917679 -1.41238,7.938414 -1.88,11.982498 0.95124,3.56565 1.78742,7.557985 2.51283,11.789005 0.34371,-6.289685 0.62045,-12.630645 0.80219,-18.807395 -0.46134,-1.661402 -0.92781,-3.322596 -1.43502,-4.964108 0,0 0,0 0,0 m -349.51907,76.71012 c -0.75687,22.95819 7.29207,47.14171 14.85364,59.61115 0,0 19.68409,19.63988 19.68409,19.63988 -5.84222,-15.12565 -26.08571,-64.86588 -34.53773,-79.25103 0,0 0,0 0,0 M 730.41224,95.319373 c -0.19006,0.4108 -0.69485,0.74555 -0.8729,1.16417 0.28305,0.11706 0.72929,-0.55393 0.8729,-1.16417 0,0 0,0 0,0 M 556.79041,75.594941 c 0.3316,19.448922 -1.74654,65.107429 -2.93446,80.182189 0,0 12.51793,-23.20093 12.51793,-23.20093 1.3719,-14.15734 -1.12633,-37.249697 -9.58347,-56.981259 0,0 0,0 0,0 M 945.84013,182.04866 c -15.07317,15.44353 -47.05699,54.74741 -51.76024,65.60726 0,0 24.76626,-18.33474 24.76626,-18.33474 6.32308,-12.40632 16.61483,-30.84496 26.99398,-47.27252 0,0 0,0 0,0 M 605.46102,80.941188 c 0.16897,3.5054 0.38316,7.274065 0.31453,11.129455 0.37471,-2.65591 0.73257,-5.286715 1.04597,-7.846185 -0.3562,-1.0933 -0.95225,-2.21121 -1.3605,-3.28327 0,0 0,0 0,0 m 121.82997,21.310032 c -6.15261,17.33318 -8.79361,37.15277 -9.56901,50.78886 0,0 8.3429,1.94141 8.3429,1.94141 3.46486,-12.84517 5.13038,-33.47143 1.22611,-52.73027 0,0 0,0 0,0 m 66.56249,23.78109 c -11.14549,12.84797 -19.06287,28.62868 -23.13086,40.83484 0,0 8.9862,2.71805 8.9862,2.71805 3.02626,-11.716 8.12365,-28.83341 14.14466,-43.55289 0,0 0,0 0,0 m -605.968,24.67658 c 2.65364,7.4501 6.2135,16.43294 10.02323,25.27012 0.95468,1.91174 1.9269,3.77947 2.88673,5.65245 -1.75821,-5.02922 -3.74948,-10.4458 -5.84681,-15.89694 -2.3165,-5.13962 -4.72011,-10.25902 -7.06315,-15.02563 0,0 0,0 0,0 m 14.203,-3.8629 c 6.61658,14.80362 12.63613,29.84134 16.48644,40.47392 0,0 6.59648,-2.68348 6.59648,-2.68348 -3.75254,-10.58543 -11.97949,-25.11432 -23.0831,-37.79036 0,0 1.8e-4,-8e-5 1.8e-4,-8e-5 m 419.88893,-42.594 c -0.068,0.43892 -0.14504,0.88896 -0.21269,1.33365 0.0163,0.0775 0.0386,0.15477 0.0542,0.23247 0.0535,-0.52231 0.10825,-1.04252 0.15835,-1.56613 0,0 10e-5,1e-5 10e-5,1e-5 m 71.43459,18.20636 c -1.38282,8.84443 -2.96896,17.36715 -4.50646,24.63133 0,0 1.28301,0.23261 1.28301,0.23261 1.3806,-4.41789 2.54185,-10.8465 3.32055,-18.42713 0.0173,-2.10718 -0.0126,-4.25074 -0.097,-6.43679 0,0 -6e-5,-2e-5 -6e-5,-2e-5 m 246.56337,101.20831 c 0,0 -0.6763,0.97699 -0.6763,0.97699 0,0 0.20269,-0.37882 0.20269,-0.37882 0.007,-0.009 -0.51858,0.83361 -0.58265,0.93771 0,0 -0.54016,0.74875 -0.54016,0.74875 0,0 0.0518,0.0309 0.0518,0.0309 0.0951,-0.15362 0.43525,-0.69315 0.48837,-0.77965 0,0 0.38013,-0.55878 0.38013,-0.55878 0,0 -0.30747,0.55449 -0.30747,0.55449 -0.26343,0.41564 -0.26569,0.42977 -0.50933,0.81478 0,0 0.069,0.0411 0.069,0.0411 0,0 0.44045,-0.85588 0.44045,-0.85588 0.50111,-0.79085 0.40937,-0.62478 0.98369,-1.53153 0,0 -1.7e-4,-1e-4 -1.7e-4,-1e-4"
     id="path5845"
     style="fill:#304e15" />
  <path
     inkscape:connector-curvature="0"
     d="m 43.412759,144.63605 c 2.368073,13.18887 23.559544,46.41842 43.254292,72.80153 -9.650691,-9.14001 -22.215406,-17.71929 -36.611552,-23.04317 0.110116,-0.95788 0.203434,-1.88175 0.371883,-2.80416 -0.283614,0.88643 -0.519879,1.74866 -0.770928,2.63318 -9.373353,-3.41661 -21.410871,-3.88534 -32.445209,-3.24559 9.241956,0.65829 20.320669,4.09043 30.3464,9.94991 -4.277997,23.7985 2.874637,46.48791 12.688555,63.46259 C 39.149865,239.12265 12.254336,210.39641 0,204.9867 c 10.592721,11.40865 27.981709,33.04782 44.573395,53.49807 -4.826807,-3.65442 -10.136948,-6.90682 -15.898078,-9.46394 l 76.027913,76.69513 852.33319,0.269 c 20.7708,-34.37956 -27.81026,-10.53222 -27.06983,-24.46965 -5.58255,11.50161 27.69688,-103.52073 15.80097,-85.97241 4.08785,-10.63136 6.60194,-20.37607 5.23728,-25.5544 -5.4593,13.8177 -22.02774,43.61296 -32.47795,58.68529 l -6.17023,-3.56272 c 6.73328,-13.51618 19.40291,-34.48385 26.29559,-43.16609 -4.41313,1.20182 -10.45257,7.66553 -16.57444,15.42424 5.39429,-11.62593 11.39127,-23.53577 16.63369,-32.48061 1.84916,-3.15508 5.97579,-1.82823 7.5181,-4.10559 -1.51826,0.9879 -7.09918,-1.87303 -8.96676,0.29019 -4.17848,4.83999 -9.0332,12.29696 -13.82916,20.59522 -3.1338,2.88063 -6.56222,6.86675 -9.98612,11.33654 4.94686,-11.07926 10.42114,-22.35345 15.329,-31.17875 0.40666,-0.57055 0.81955,-1.18869 1.19928,-1.69648 -0.10696,0.0326 -0.20251,0.0788 -0.31121,0.11616 1.83221,-3.0571 5.87756,-1.84377 7.37078,-4.11924 -1.50399,1.00979 -7.12571,-1.76968 -8.96159,0.42046 -2.19759,2.62158 -4.58857,5.9941 -7.07263,9.81921 -3.36852,3.23878 -6.89351,7.52639 -10.45197,12.23881 4.23366,-9.32368 8.73305,-18.49339 13.04145,-26.46857 0.7888,-0.82527 1.58568,-1.60685 2.40115,-2.37867 1.52726,-1.44558 2.15476,-1.41805 3.77536,-2.64967 3.31637,-2.52102 4.84295,-3.6038 7.58168,-4.66025 -3.7884,1.28368 -7.6533,2.73602 -10.96416,4.66069 1.55332,-2.733 3.04949,-5.27711 4.49878,-7.55777 -3.3445,2.31735 -7.27838,6.66968 -11.48025,12.23746 -1.5655,1.19028 -3.06718,2.44392 -4.52007,3.74165 -11.72133,10.46976 -19.57184,24.40322 -25.11255,36.51493 8.16586,-20.79468 19.96109,-46.36421 26.43555,-58.93452 -1.99123,1.23677 -4.56043,3.30677 -6.95539,6.28159 -0.75426,0.93696 -0.8406,3.93955 -1.62392,5.01142 -0.84152,1.15169 -0.0446,-3.63746 -0.91206,-2.34979 -6.03266,8.95636 -13.13951,21.90792 -19.50992,34.47635 1.56869,-9.98758 1.62409,-21.33211 -1.70719,-33.83974 -0.42248,-1.58633 -1.1368,2.60436 -1.66361,0.98421 -0.22977,-0.7062 -0.47661,-3.41645 -0.692,-5.78697 0.28425,-0.46479 0.56335,-0.98362 0.83361,-1.40741 -0.30912,0.11958 -0.62676,0.27029 -0.94625,0.43314 -0.12258,-1.22144 -0.25943,-2.28952 -0.41125,-2.68181 -1.09162,-2.81952 -2.5587,-5.82685 -4.04561,-8.70955 1.63642,-3.53907 3.6206,-6.66603 5.20502,-9.52654 -1.89587,1.49035 -4.32577,3.60957 -6.45371,6.40855 0.0365,-0.62897 -0.0217,-1.2096 -0.17305,-1.73972 -0.73699,-2.58265 -2.95187,-1.68018 -4.91594,-0.50679 -5.58504,1.27949 -10.94402,2.90679 -15.6349,4.84924 -0.26136,0.10821 -0.73028,0.43495 -1.29552,0.85369 2.02055,-5.29298 4.02586,-10.34822 5.95877,-14.95062 0.61655,-1.46868 2.29001,-5.37663 2.86037,-5.4133 1.66538,-0.10703 2.08156,7.35552 3.59539,4.41182 -1.1878,0.99433 -0.86402,-6.12382 -3.41759,-6.90567 -0.47294,-0.14456 -1.01549,-0.0709 -1.71455,0.31045 -1.80283,0.98338 -3.41515,3.28505 -5.4085,6.77095 -3.19823,5.59351 -6.55185,12.30001 -9.90022,19.44725 -10.69884,6.10151 -18.49529,13.71371 -24.39634,21.44298 4.68378,-13.29415 9.13173,-27.37341 11.4373,-37.92679 0.33123,-1.51685 -2.57963,2.36871 -2.32872,0.96459 0.23355,-1.3068 2.37327,-3.43333 2.52934,-4.62598 0.49516,-3.78685 0.19262,-7.08493 -0.29139,-9.37845 -4.58356,13.32157 -14.7935,39.3914 -24.13578,59.64077 4.88017,-12.33924 9.26063,-27.53244 8.94975,-43.15212 -0.17197,-8.63437 -2.09414,-17.43184 -6.01286,-25.87554 1.38707,3.11016 1.20718,4.80619 1.72105,9.25673 0.23361,2.02197 0.69804,2.42609 0.71271,4.52894 0.1682,24.10468 -18.28561,62.4535 -26.85046,77.31607 l -8.96633,-14.38898 c 6.79735,-19.88146 15.45476,-49.01893 18.7366,-68.87859 0.65486,-3.96184 1.34752,-6.62338 0.59989,-8.53596 -0.34795,-0.89003 -1.21781,-1.41278 -1.7948,-1.52933 -2.50047,-0.50522 -6.45584,4.74767 -6.7391,3.28324 -0.68272,3.23898 4.37828,-2.27931 5.60284,-1.14568 0.41961,0.38841 -0.74791,4.47608 -1.1959,6.00462 -3.29818,11.25403 -7.84538,24.71395 -12.61488,37.7125 0.22971,-1.85379 0.44006,-3.66716 0.59897,-5.43426 1.55488,-8.68688 2.12724,-16.1079 0.78455,-19.97174 -0.25594,1.11662 -0.53908,2.36644 -0.88534,3.68261 -0.31168,-1.74034 -0.7718,-3.20812 -1.38793,-4.3702 -1.221,8.28261 -4.71838,22.30898 -8.74688,36.04206 -2.35345,6.59955 -4.79804,13.10247 -7.08549,18.78407 l -21.76385,22.44991 c 3.91386,-16.4588 22.33563,-73.48818 39.38125,-93.40835 6.1296,-7.16322 10.93261,-1.5212 17.89935,-4.82192 -8.96476,2.90557 -14.92334,-4.07983 -21.70951,1.20196 -14.07434,10.95426 -23.80698,25.51728 -30.32897,39.13781 3.92576,-14.30105 7.59484,-29.77271 10.13843,-45.29287 1.31983,-8.055867 14.89624,-32.474684 14.25702,-36.622121 -1.26318,4.868545 -11.83612,7.843326 -13.81006,14.679729 -2.09846,7.26757 -1.88657,13.418345 -4.41129,21.896132 -2.82996,9.50217 -6.10391,19.62087 -9.50455,29.51319 1.23556,-12.05714 0.3131,-25.08784 -4.69096,-37.439477 -2.69219,-6.645015 -15.32014,-5.14292 -20.7753,-11.173875 4.08082,5.885145 15.09509,5.394685 16.1237,13.652815 3.22752,25.910277 -5.76188,59.229537 -12.19584,75.159647 l -30.89783,25.66756 c 5.80093,-19.99067 18.60277,-80.23578 39.72883,-92.43401 -22.98799,9.57364 -35.66774,24.47764 -43.10137,38.77398 3.38412,-20.97996 5.57481,-43.31893 2.32201,-51.695747 -1.41686,8.306557 -4.08782,21.453777 -7.28306,35.266097 0.56256,-14.91359 -3.2909,-31.028207 -16.39647,-44.999272 0.0682,-0.12687 0.11873,-0.28837 0.18749,-0.41457 3.98224,-7.307344 14.54765,-2.76129 20.56562,-6.643467 -7.34406,3.492417 -19.05111,-2.533069 -23.99039,2.663787 -9.17767,9.656925 -14.79125,21.331535 -18.05726,32.999782 0.45807,-10.44479 1.08652,-21.074907 1.93257,-30.947662 0.75505,-8.813445 3.23186,-14.424308 3.94058,-21.955488 -4.23726,-36.4349 -11.85381,3.370367 -7.32054,20.568357 -3.57011,15.330126 -6.07851,31.039553 -7.90314,45.767563 -0.51879,-9.4295 -1.94358,-19.61114 -5.25951,-29.728207 0.11258,-4.607 0.12783,-8.992755 -0.001,-12.958355 -0.13076,-4.013487 0.0297,-6.758898 -1.07689,-8.488946 -2.15603,-3.371412 -5.24943,1.645077 -6.80376,3.124622 3.59914,-6.771003 8.00885,-12.524926 13.36037,-16.499299 -6.6974,3.74436 -12.76647,8.195326 -17.29284,13.266345 -4.30505,-2.358196 -10.31368,-1.048255 -15.80019,-5.705841 4.59002,5.048159 10.09835,2.988765 13.35133,8.607192 -7.19313,9.038147 -11.6319,19.373722 -14.381,29.683449 0.50736,-26.319622 0.99638,-54.064447 2.36552,-69.565553 -6.36148,11.788495 -9.80186,50.938031 -11.60014,83.805793 -1.55185,-13.22452 -5.17622,-27.813387 -12.75591,-41.193255 4.44581,-8.196787 10.12126,-15.20319 16.09806,-19.954314 -7.19533,4.33868 -13.73462,9.593506 -18.87126,15.360549 -4.57029,-7.063368 -10.83313,-13.672535 -18.04262,-19.396935 5.75037,5.921954 10.76673,14.334632 14.24487,23.912327 -9.83685,12.619941 -15.61164,27.267928 -18.96238,40.653998 1.38515,-18.73467 2.50555,-39.564402 2.32088,-56.327839 0.16516,-0.126823 0.32141,-0.242243 0.48764,-0.383369 -0.16226,0.105186 -0.3219,0.193148 -0.48316,0.289725 -0.14283,-12.559204 -1.88445,-22.865944 -4.02708,-28.184095 -0.18151,7.655732 -0.85998,18.276465 -1.8172,30.176402 -5.39585,0.986166 -10.65011,-0.693521 -14.49461,4.401475 -0.43021,0.570145 -0.82927,1.123792 -1.2436,1.70083 -0.61373,-0.911591 -1.26311,-1.792703 -1.9299,-2.684545 0.16132,-4.802383 0.41926,-9.173562 0.779,-12.739874 -1.21324,2.224352 -2.27286,5.53991 -3.20295,9.641842 -2.93665,-3.480047 -6.88501,-6.82966 -10.8435,-9.808477 0.29345,-10.068262 6.95227,-33.041675 5.45485,-36.586715 -0.0357,5.02968 -9.78519,10.547574 -10.02675,17.659219 -0.25685,7.560032 1.45334,13.440908 1.07913,22.27873 -0.59221,13.987112 -2.8707,31.809354 -5.36433,48.542321 -0.16598,0.36637 -0.33835,0.76008 -0.49751,1.15732 -0.55527,-7.46459 -1.80742,-15.258427 -4.20537,-22.865752 1.29044,-1.53612 3.21269,-2.49918 3.36568,-4.3197 -0.43697,0.83402 -2.34631,1.29421 -4.15202,1.94642 -1.04636,-2.9974 -2.53936,-5.947154 -4.03221,-8.82647 1.04033,-1.186835 2.46193,-2.353241 3.59963,-3.422496 -1.25236,0.904279 -2.79591,1.863111 -3.95511,2.804093 -1.53984,-2.899311 -3.25141,-5.731744 -5.25416,-8.464879 -0.11906,-0.162426 -0.25364,-0.314762 -0.38376,-0.461594 0.0465,-0.13395 0.0905,-0.221804 0.15151,-0.252896 1.48642,-0.758766 4.85944,5.926156 5.08154,2.623412 -0.82472,1.640153 -4.2191,-8.032806 -7.3582,-4.018242 -0.0138,0.01739 -0.0175,0.01389 -0.0306,0.03182 -5.24012,-2.544428 -14.71653,0.106123 -20.40796,-3.685709 5.33343,4.646927 15.79106,1.594058 18.94528,8.995406 -0.11064,0.903106 -0.24234,1.888411 -0.38146,2.976435 -0.4847,3.789738 -0.85549,7.99094 -1.17275,12.39916 -10.51824,11.410575 -15.94373,23.628892 -18.7916,34.883112 -1.52171,-21.199157 -4.5181,-43.472143 -9.60751,-50.879653 0.52818,8.421174 0.91859,21.862446 0.97819,36.060203 -1.71808,-8.786957 -5.07313,-17.600752 -10.88873,-25.541344 1.14947,-1.496313 2.35033,-2.927453 3.6193,-4.290657 -1.43451,1.189201 -2.81789,2.368377 -4.13858,3.574732 -4.39564,-5.81909 -10.60395,-11.165976 -18.11097,-15.642113 4.85926,3.823697 9.05729,8.988952 11.89624,15.006121 -1.2094,2.274009 -2.10019,5.742269 -2.75783,9.963479 -1.0622,1.248335 -2.18709,2.506735 -3.12799,3.777775 -0.4429,-5.532245 -0.65554,-10.488615 -0.57486,-14.378315 -2.09701,3.90996 -3.18083,11.462075 -3.59861,20.570145 -0.19155,0.30914 -0.39286,0.61875 -0.57905,0.92788 -0.79177,-4.84609 -1.68439,-9.20055 -2.71952,-12.688835 -0.33541,-1.13 -1.60569,-1.74692 -3.04166,-2.18548 1.81395,-4.739624 4.28188,-9.039006 7.51071,-12.625557 -4.33658,3.718584 -8.19775,7.676388 -11.04423,11.795787 -0.80171,-0.22522 -1.45984,-0.49272 -1.7249,-0.89115 0.1379,0.72607 0.55952,1.29972 1.096,1.80382 -1.99569,3.00151 -3.67172,6.048875 -5.02969,9.154575 -1.98485,-8.603245 -4.30999,-15.509438 -6.93859,-18.953274 0.88918,7.862309 1.90367,20.090594 2.65894,33.276981 -0.073,0.41359 -0.14931,0.86503 -0.21442,1.27854 -0.89524,-3.34889 -1.96338,-6.6685 -3.42967,-9.914557 -0.96641,-6.64646 -1.7387,-12.590865 -2.2266,-17.075015 -0.98466,2.14151 -1.6482,5.26422 -2.06237,9.089585 -2.12086,-3.329565 -4.62777,-6.525605 -7.55945,-9.546325 1.63854,-6.924036 4.38643,-13.217408 8.61748,-18.243287 -5.14212,4.714346 -9.57347,9.722896 -12.53145,14.920086 -3.46829,-2.943619 -7.41204,-5.649638 -11.94576,-8.055833 4.06655,2.884506 7.50441,6.670057 10.3702,11.077204 -3.93198,7.926105 -5.81872,16.134475 -6.35977,24.172332 -0.39797,-0.34947 -0.80431,-0.68659 -1.21296,-1.03331 -2.10103,-11.774227 -4.15113,-22.565962 -5.17417,-29.754107 -1.95121,4.641263 -2.29869,13.727085 -1.75106,24.51504 -1.44327,-0.98198 -2.93522,-1.94226 -4.48787,-2.88584 -0.0187,-0.6937 -0.0572,-1.41725 -0.06,-2.04568 -0.31797,0.43656 -0.60307,0.91632 -0.88273,1.46276 -2.02456,-1.20195 -4.3122,-2.3202 -6.54477,-3.41267 2.05322,1.35729 4.17406,2.87344 6.05199,4.53127 -1.27351,3.02775 -2.086,7.285097 -2.50259,12.267687 -0.54878,-0.63343 -1.1335,-1.23676 -1.71126,-1.86486 -0.50392,-4.90148 -0.84159,-9.284597 -0.91163,-12.650737 -0.75692,1.07579 -1.39169,2.50523 -1.91899,4.19281 -0.17874,-1.34911 -0.33387,-2.61934 -0.44806,-3.75924 -0.17728,0.35784 -0.34477,0.76648 -0.49472,1.19337 -0.0814,-0.41965 -0.16527,-0.84085 -0.24521,-1.25793 1.49262,-2.72263 3.39032,-5.39706 5.26874,-7.783965 -1.93736,1.897575 -3.99502,3.913165 -5.65989,5.853465 -1.30774,-6.957775 -2.38615,-13.507983 -3.16106,-19.178743 1.91598,-4.665218 4.85576,-8.956986 7.59847,-12.442066 -2.76324,2.706499 -5.8689,5.670336 -8.0878,8.626433 -0.21482,-1.814989 -0.38476,-3.51418 -0.51369,-5.079363 -0.62414,1.904846 -1.02883,4.469625 -1.25643,7.535271 -0.48403,0.695492 -0.95735,1.406665 -1.41669,2.110641 -1.54943,-1.431967 -3.30686,-2.500344 -4.5271,-0.340845 -1.01024,1.787993 -1.14996,4.621312 -0.99565,8.633887 0.01,0.25067 0.0344,0.50081 0.0455,0.75446 -0.16262,0.34227 -0.35171,0.67368 -0.50958,1.01698 -0.0883,-0.77054 -0.15571,-1.51021 -0.22843,-2.24619 -0.45477,1.46865 -0.82083,3.20525 -1.06601,5.18983 -0.50891,1.217015 -0.99118,2.445265 -1.44479,3.671055 -2.97052,-1.76583 -6.47631,-3.420795 -9.89289,-4.956865 3.14683,1.93604 6.43019,4.224915 9.21943,6.799155 -4.34857,12.515897 -5.76538,25.379387 -5.72718,37.008717 -5.72323,-32.415587 -13.82948,-70.870901 -21.55735,-81.812359 2.17568,10.298673 4.18537,26.315926 6.90771,43.569422 -0.32803,-0.41859 -0.66483,-0.81889 -0.99105,-1.1576 0.34041,1.47197 0.70274,3.14753 1.08259,4.91334 -1.57263,1.95738 -3.04707,3.91428 -4.40334,5.866097 -6.95654,-10.684337 -17.84101,-19.895642 -31.99733,-25.458127 9.22609,5.081325 17.14602,14.87077 22.85984,26.464857 -2.94643,-2.977707 -6.24898,-5.717777 -9.89925,-8.153947 2.37206,1.7293 3.19599,3.30255 5.79515,6.55817 1.26993,1.590677 1.90846,1.679867 3.03567,3.455077 1.47989,2.3306 2.82222,4.83486 4.07176,7.41662 -0.0767,0.002 -0.14435,0.0661 -0.25357,0.28497 -5.77521,11.58375 -7.97328,22.73375 -8.43408,32.83327 -3.72768,-13.58867 -8.10002,-27.7001 -12.21942,-37.68215 -0.59227,-1.43516 -0.76952,3.41663 -1.36363,2.11989 -0.55297,-1.20693 -0.0371,-4.16609 -0.58869,-5.23497 -1.0042,-1.94581 -2.00384,-3.636807 -2.99056,-5.043767 0.91167,-2.43651 2.01904,-4.77095 3.39903,-6.92539 -1.58423,1.88576 -2.99094,3.7879 -4.29053,5.70101 -0.42992,-0.5371 -1.2074,-0.90685 -1.63709,-1.31231 0.20842,0.73843 0.43061,1.59649 0.65396,2.41293 -3.24869,5.146877 -5.53598,10.349157 -7.05479,15.542747 -4.30485,-5.12582 -9.71663,-9.56973 -15.8279,-13.24179 2.45141,1.61484 3.37905,3.13858 6.12971,6.26726 1.34394,1.52867 1.95597,1.59614 3.16611,3.31587 1.89786,2.69706 3.64906,5.64294 5.2376,8.70297 -1.38768,7.47267 -1.29127,14.82806 -0.30259,21.87513 -4.57934,-13.43911 -8.59908,-26.27119 -10.84936,-34.4034 -2.3933,8.6684 2.21758,30.694 8.02462,51.15043 -6.18801,-9.13048 -14.76573,-18.24969 -27.34126,-25.45839 -3.67379,-7.6841 -7.54456,-13.68932 -10.86387,-16.54701 0.22332,-8.28798 2.23674,-16.095547 5.70377,-22.335197 -7.33795,9.934477 -11.83688,20.786167 -13.03679,31.241317 -0.67438,-0.20846 -1.31987,-0.41285 -2.00884,-0.61204 0.67047,0.2918 1.33385,0.62957 1.99583,0.94837 -0.92039,8.3555 -0.37961,16.60394 1.0341,24.44217 -10.72641,-24.04602 -21.98438,-49.403137 -27.31216,-64.028002 -0.32853,5.718345 1.96393,15.754022 5.64055,27.745912 -5.46785,4.3606 -15.48756,5.79989 -16.8676,11.76936 -0.35777,1.54746 -0.6615,3.11062 -0.90706,4.65352 -3.54665,-1.94258 -7.63957,-3.49052 -11.60186,-4.89844 -0.15805,-1.27007 -0.29336,-2.5231 -0.3788,-3.77659 -0.14301,-2.09798 0.28991,-2.53582 0.37119,-4.56962 0.17893,-4.47658 0.47801,-6.41346 1.67447,-9.60181 -2.17572,5.54366 -3.91827,11.45329 -4.42479,17.04655 -0.6304,-0.19954 -1.28639,-0.35524 -1.9264,-0.54114 -0.96052,-3.06976 -1.90325,-6.09213 -3.3688,-9.22959 -3.0115,-6.44703 -13.85813,-7.74107 -15.85283,-12.35845 0.004,4.19646 17.152,26.21616 19.69188,33.97417 0.50938,1.5559 1.05901,3.14393 1.59155,4.69434 1.49509,10.69209 4.90987,20.83957 8.81488,29.75351 -0.47041,-0.5806 -0.89959,-1.16853 -1.38457,-1.74606 -9.66293,-18.11696 -20.02692,-38.73486 -25.05833,-50.03051 -0.28128,2.32707 0.0233,5.48661 0.789,9.22816 0.24116,1.17841 2.47125,3.17184 2.79799,4.45857 0.35107,1.3825 -2.80292,-2.29716 -2.36354,-0.80801 1.84505,6.25351 4.56867,13.74982 7.667,21.54517 -3.68154,-2.85084 -7.82483,-5.33915 -12.06152,-7.62863 -5.45442,-2.94756 -9.84235,0.46553 -14.90268,1.93961 -1.18976,-0.79106 -2.26214,-1.51874 -2.76583,-1.71262 0.79855,-0.94373 1.85847,-2.1249 2.29651,-3.28445 -0.59199,1.10926 -1.78035,2.24849 -2.68893,3.1336 -3.23754,-1.02776 -7.08663,-1.68826 -10.69653,-2.38863 -0.50789,-1.12249 -0.99565,-2.22498 -1.42354,-3.24124 -2.5e-4,0.8929 0.0901,1.91323 0.24462,3.01423 -1.55664,-0.2848 -3.11567,-0.52695 -4.74042,-0.75377 1.63841,0.44947 3.25616,0.93726 4.86852,1.53388 0.0249,0.15149 0.0526,0.33282 0.0801,0.48757 -0.23849,-0.18253 -0.46581,-0.3589 -0.69572,-0.51666 0.27803,0.43334 0.56536,0.89054 0.85293,1.35209 0.41647,2.09739 1.06741,4.44631 1.86611,7.03411 -2.70269,1.8084 -5.22512,3.97691 -5.55636,6.82658 -1.5379,13.23051 1.00784,26.03121 5.43719,37.30664 -5.93307,-8.60808 -11.84182,-17.4667 -17.1206,-25.85235 -4.71238,-7.48586 -6.14736,-13.4397 -10.1235,-19.87472 -3.74023,-6.05324 -15.231579,-5.81836 -17.797898,-10.14405 0.538628,4.16162 21.044198,23.50735 24.361548,30.96591 6.40009,14.38961 13.92287,28.45887 21.35273,41.31344 -9.37931,-11.08801 -22.05694,-22.13558 -37.816347,-28.69543 -4.885056,-5.8494 -9.323239,-10.51515 -12.910188,-13.15185 -2.517207,-9.44097 -2.120256,-19.29732 0.121967,-27.22574 -6.371372,14.87754 -8.134641,30.63377 -4.637743,43.6719 -1.538798,0.54831 -3.239891,0.88664 -5.257574,0.86101 C 61.93975,170.73263 50.158861,154.83441 43.412814,144.63595 l -5.5e-5,1e-4 m 90.624901,-1.26888 c 2.45751,0.98504 5.25291,1.94621 7.61209,3.25715 -0.16339,0.1144 -0.32035,0.24101 -0.48657,0.35293 -0.17826,-0.0211 -0.3493,-0.0519 -0.53167,-0.08 0.15261,0.0441 0.28545,0.12721 0.43446,0.16451 -0.82855,0.55438 -1.67136,1.05718 -2.53202,1.56994 -1.09124,-1.30521 -2.52083,-2.2421 -3.53129,-3.22995 -0.32781,-0.68914 -0.66071,-1.37591 -0.96507,-2.03466 l 7e-5,2e-5 m -49.070663,28.58465 c 1.994848,2.7778 4.169121,5.97516 6.456882,9.48433 -1.029659,0.0394 -1.982587,0.26737 -2.916175,0.59977 -1.34592,-3.36143 -2.559445,-6.73357 -3.540707,-10.0841 l 0,0 M 521.94267,55.875629 c 3.85814,4.017623 7.40317,9.223406 9.76158,15.04277 -0.62492,3.598197 -1.16064,7.606703 -1.64118,11.852269 -0.3109,0.59499 -0.63417,1.16983 -0.93204,1.76786 -2.07448,-1.17186 -5.35193,-1.67072 -5.92854,-2.80518 0.1749,2.44338 3.53452,3.44544 4.28501,6.219125 -2.33853,5.14279 -4.10663,10.3249 -5.53633,15.485187 0.99921,-15.637677 1.41834,-31.805258 0.0271,-45.530878 -0.0599,-0.590638 -0.0501,-1.256078 -0.0356,-2.03115 l -5e-5,-3e-6 M 181.33346,123.63903 c 0.48461,0.24978 0.96532,0.50883 1.44945,0.77724 -0.0776,1.07086 -0.55242,2.3007 -0.56597,3.3679 -0.48964,-1.34679 -0.47825,-2.85326 -0.88348,-4.14514 l 0,0 M 49.697282,201.46734 c 15.855322,10.04499 38.273456,34.71712 53.484578,54.38864 l 18.87652,41.07058 -34.696182,-12.85107 C 73.528913,269.65761 50.195624,230.60068 49.697312,201.46738 l -3e-5,-4e-5 m 165.452548,-88.5212 c 4.92198,15.97633 12.28173,35.32008 19.26001,52.65092 -7.29396,-11.78378 -17.34876,-23.90529 -30.75886,-32.77477 -0.25579,-2.28941 -0.42289,-4.5561 -0.49812,-6.78082 -0.23113,-6.83589 7.68418,-9.10186 11.99697,-13.09533 l 0,0 M 358.72476,74.214962 c 0.0468,-0.01704 0.10107,-0.02126 0.15405,-0.02615 0.30148,-0.02662 0.6746,0.186321 1.09049,0.448801 -0.49038,0.775528 -0.95438,1.516248 -1.41612,2.30071 -0.14345,-1.310935 -0.20778,-2.466846 0.028,-2.635586 0.0425,-0.03019 0.0968,-0.07066 0.14359,-0.08779 l 0,0 m -172.7571,52.109793 c 3.53076,2.24851 7.03636,4.91633 10.46446,7.95311 -0.65989,9.59742 0.62002,18.98018 2.9214,27.71323 -2.64774,-5.00033 -5.28345,-10.05681 -7.81799,-15.08229 -2.52761,-6.7821 -4.51216,-13.76305 -5.56787,-20.58404 l 0,0 m -43.67231,20.6721 c 0.0504,0.0287 0.13197,0.0538 0.18229,0.0825 l -0.25164,-0.0124 0.0693,-0.0703 1e-5,-6e-5 m -0.2638,0.23948 c 0.31048,0.0522 0.59933,0.0794 0.89523,0.10522 25.14933,14.58107 44.08141,44.72547 46.43045,58.09414 l 7.8287,27.83992 -13.6412,-11.26737 c -9.65316,-15.82616 -24.20467,-45.69613 -28.85094,-59.54775 -0.7476,2.33144 -0.74184,5.64736 -0.19485,9.60274 -5.34969,-8.90163 -10.63857,-16.86912 -15.21755,-22.51463 0.90074,-0.77615 1.84335,-1.52956 2.75016,-2.31227 l 0,0 m -67.426718,39.8777 c 2.11837,0.28913 3.794568,0.002 5.337116,-0.46264 1.318203,4.80935 3.075046,9.43903 5.080313,13.83033 -3.496241,-4.4163 -6.972936,-8.91368 -10.417429,-13.36769 l 0,0 M 552.89216,65.551594 c -0.984,12.160362 -2.27409,25.597539 -3.70946,38.715176 -1.2114,-9.124117 -3.69736,-18.413892 -8.18841,-27.143324 0.76626,-1.742834 1.58409,-3.481682 2.41166,-5.145958 2.73485,-5.499744 5.96421,-5.59135 9.48621,-6.425894 l 0,0 M 148.30137,146.68157 c 3.21329,-0.68503 6.09848,-1.43091 10.49607,2.14867 1.96851,1.60237 4.12249,3.2162 6.02047,5.02036 -3.49264,-2.29943 -7.54199,-4.30821 -11.74317,-6.17455 -1.50036,-0.66651 1.32822,2.54741 -0.26382,1.94094 -0.6539,-0.24906 -2.63845,-1.64102 -4.50955,-2.93542 l 0,0 M 1019.12,215.66011 c -2.1635,0.90199 -4.7558,2.76734 -7.634,5.27738 -0.9066,0.79051 -1.5169,3.73163 -2.4756,4.64991 -1.0301,0.98657 0.6107,-3.61441 -0.4686,-2.49837 -7.509,7.76526 -16.78512,19.29265 -25.25843,30.55615 3.29151,-9.55859 5.47248,-20.82522 4.15037,-33.70053 -0.16755,-1.63308 -1.56714,2.44494 -1.83261,0.76212 -0.19574,-1.24131 0.76815,-8.21992 0.51621,-9.48801 -1.03279,-5.19783 -3.02365,-10.84898 -5.26431,-16.43037 7.35116,28.46533 -8.69646,65.16925 -21.04873,80.40415 l -14.16847,20.48848 -17.18223,9.5879 26.29486,19.12605 29.83711,-39.10277 c 7.40183,-14.10454 20.28593,-34.39715 35.99783,-47.17668 l 4.5116,-5.91262 c -3.8349,1.5575 -7.4772,3.45218 -10.9089,5.59082 -13.2585,8.26293 -23.55594,20.21846 -31.23275,31.04114 11.87007,-18.87849 27.79335,-41.84538 36.16665,-53.17475 l 0,0 M 135.38719,153.78085 c 2.47068,7.39409 6.12157,16.22494 10.30102,25.4074 -2.62657,-2.36061 -5.13493,-3.99282 -7.27577,-4.63552 8.3016,11.02961 23.35608,37.45516 31.38671,54.60883 l -2.30636,1.25349 c -10.12377,-12.45683 -29.47701,-44.1673 -33.10242,-71.48334 -0.27013,-2.03556 0.16408,-3.68888 0.99682,-5.15086 l 0,0 m 226.4729,-73.980662 c 0.0538,4.66029 0.33634,9.933165 0.79701,15.522925 -0.56196,-1.42128 -1.1478,-2.77087 -1.72283,-3.98657 -0.31689,-1.70399 -0.59483,-3.3734 -0.88335,-5.016615 0.54547,-2.22958 1.14764,-4.40319 1.80921,-6.51975 l -4e-5,1e-5 m 266.95229,-5.342454 c 0.10638,0.0037 0.21528,0.0416 0.30341,0.09746 0.48232,0.306833 0.0356,4.534144 -0.13115,6.118184 -0.12618,1.20456 -0.27837,2.44252 -0.4211,3.69478 -1.08898,-2.39234 -2.2509,-4.73958 -3.56557,-7.07417 1.14043,-0.820719 2.82235,-2.870209 3.81441,-2.836275 l 0,0 M 89.795605,185.21743 c 0.892197,0.3194 1.84573,0.79501 2.908726,1.48057 1.199282,0.77341 2.416956,1.57226 3.609514,2.40498 0.118942,0.19132 0.250644,0.38703 0.369688,0.57962 -1.48731,0.18746 -3.147134,0.79105 -4.406523,0.99437 -0.861907,-1.80048 -1.696501,-3.63633 -2.481405,-5.45954 l 0,0 M 668.202,83.012478 c 12.94272,20.339102 6.00204,55.327962 -1.01474,77.441362 l -4.40956,-0.72467 c 1.52286,-15.2948 5.9338,-38.1483 9.59007,-48.33403 -4.21857,2.41835 -7.8307,9.73819 -11.06804,18.42318 1.2806,-17.09012 3.50573,-34.728277 6.09306,-44.745622 -0.17628,0.19891 -0.35815,0.39095 -0.53312,0.61632 0.44203,-0.91349 0.87565,-1.79325 1.34233,-2.67654 l 0,0 m 206.19567,57.968712 c 0.042,0.0183 0.0974,0.0503 0.13137,0.0902 0.37405,0.43239 -1.25037,4.39471 -1.86458,5.86437 -0.99723,2.38693 -2.08786,4.86958 -3.21388,7.42828 -4.13433,7.02745 -8.35255,15.21984 -12.31248,23.52101 0.0149,-0.0724 0.0142,-0.1534 0.0286,-0.2257 2.50559,-8.46176 3.9776,-15.73079 3.00868,-19.70474 -0.36107,1.08716 -0.77872,2.26368 -1.24865,3.54094 -0.0624,-0.75928 -0.1875,-1.45598 -0.31281,-2.12079 2.11905,-4.32421 4.12013,-8.11845 5.8089,-10.95935 -1.21125,0.51292 -2.47699,1.40229 -3.8169,2.55588 0.56169,-1.23966 1.07292,-2.4116 1.57857,-3.4395 -3.47916,2.15086 -7.67629,8.25262 -11.95046,15.97346 -0.98512,1.46121 -1.97882,3.02233 -2.96369,4.59418 1.92052,-5.58702 3.89255,-11.20777 5.91519,-16.65711 4.82508,-3.92165 10.19278,-7.29464 15.64021,-9.75307 -0.84713,2.77861 3.94656,-1.2337 5.44476,-0.72852 0.0502,0.0171 0.0855,0.003 0.12719,0.0205 l -5e-5,-2e-5 m -2.60579,-0.50363 c -1.50574,0.94272 -2.79275,1.85433 -2.92515,1.19526 0.96284,-0.43397 1.94807,-0.81564 2.92515,-1.19526 l 0,0 M 243.00361,115.68577 c 1.57215,3.51563 3.24312,7.97922 4.96541,13.0003 -1.45748,-0.67987 -2.98156,-1.33229 -4.5258,-1.96408 -0.36342,-3.75576 -0.51208,-7.44779 -0.43961,-11.03622 l 0,0 m 50.43457,-15.02302 c 3.87493,14.61594 9.31203,38.3405 12.73772,57.86996 -2.71341,-11.66696 -7.01391,-25.04397 -14.56077,-36.88116 -0.48479,-7.38882 -0.0177,-14.55738 1.82305,-20.9888 l 0,0 m 154.0553,-23.238845 c 0.67895,1.454233 1.32704,2.965603 1.90847,4.504203 -0.65435,0.66681 -1.30563,1.34231 -1.92845,2.01257 -0.064,-2.38517 -0.0418,-4.57419 0.02,-6.516773 l 0,0 M 877.806,147.2332 c 1.03536,3.7166 1.89978,7.66243 2.31393,11.59802 -3.78719,3.04325 -8.0623,8.30176 -12.36009,14.50226 2.05971,-5.41527 3.96064,-10.67582 5.51222,-15.66786 1.51188,-3.64965 3.03835,-7.14026 4.53394,-10.43242 l 0,0 M 92.843784,191.79805 c 1.867186,0.45056 4.177999,0.37154 5.567674,2.4533 3.841012,5.75393 8.113502,12.78649 12.325432,20.19638 -4.03019,-4.3312 -7.98385,-8.07958 -11.536818,-10.76614 -2.23906,-3.83467 -4.366244,-7.80762 -6.356288,-11.88354 l 0,0 M 331.27389,96.049843 c 0.48961,2.30996 0.98256,4.770737 1.51189,7.442677 0.62817,4.223 1.23837,8.44192 1.82793,12.65296 -1.78987,-4.47565 -3.92667,-8.92556 -6.49091,-13.1935 0.94222,-2.37313 1.98377,-4.683127 3.15109,-6.902147 l 0,0 m 289.8397,-12.351185 c 2.07575,6.960545 3.59727,14.396785 4.59842,21.826222 -0.73013,4.78504 -1.50662,9.64476 -2.33914,14.45297 -0.10602,-1.85187 -0.22891,-3.66756 -0.38846,-5.42257 -0.0277,-8.82498 -0.75585,-16.213947 -2.82731,-19.740877 -0.0329,1.14509 -0.12513,2.389 -0.20743,3.74747 -0.64576,-1.64588 -1.34958,-3.02351 -2.18103,-4.04279 0.42114,8.361507 -0.27099,22.831907 -1.53812,37.087597 -1.11719,7.60449 -2.3888,15.12063 -3.63434,21.53012 l -1.52403,-0.14839 c -0.912,-15.81806 0.88442,-46.22168 10.04182,-69.289772 l 0,0 m -220.35676,3.96818 c 5.62173,12.642222 8.01624,28.235302 8.7644,42.321662 -2.22115,-4.53426 -4.59748,-9.19337 -8.08286,-13.65594 -1.34395,-9.54195 -1.86909,-19.486917 -0.68154,-28.665722 l 0,0 m 97.25678,-5.79319 c 1.2796,5.42281 2.23052,11.051675 2.8777,16.698545 -0.3118,2.051517 -0.55712,4.244227 -0.78299,6.547087 -0.32588,1.73879 -0.64832,3.55253 -0.92975,5.39343 -0.72737,-9.45644 -1.27261,-19.079747 -1.59,-27.974682 l 0.42504,-0.66438 0,0 m -67.93275,3.94329 c 0.54613,0.64162 0.94618,1.4066 1.05435,2.418705 0.5697,5.33277 1.01523,11.46182 1.31793,17.921477 -1.10992,2.38892 -1.84638,4.76984 -2.64681,7.13274 -0.94604,-2.42065 -1.9194,-4.50813 -2.96037,-6.19901 0.15584,-7.456197 1.1256,-14.766277 3.2349,-21.273912 l 0,0 m 20.10601,-1.59371 c 2.37867,6.994055 3.87091,14.685495 4.7112,22.415992 -1.53112,3.56921 -2.65798,8.27862 -3.48537,13.49071 -0.18634,-7.56468 -0.0837,-14.4779 0.43731,-19.07523 -1.06006,0.9922 -1.95706,2.41182 -2.78403,4.13902 -0.61949,-5.922507 -1.10535,-11.548057 -1.36533,-16.601457 0.79132,-1.481905 1.61132,-2.956255 2.48622,-4.369035 l 0,0 m 127.84718,2.63386 c 6.6188,22.718122 8.24533,49.167912 6.66613,63.809122 l -28.63688,29.3347 c 0.4188,-15.38229 12.37474,-71.94987 21.97075,-93.143822 l 0,0 M 205.30645,142.94472 c 15.78229,17.54203 28.19788,40.82271 32.94181,54.71897 l -9.3355,3.7244 c -6.88896,-10.4328 -18.74693,-34.70426 -23.60631,-58.44337 l 0,0 m 38.3455,-14.04967 c 2.0149,1.39059 3.97739,2.90682 5.88224,4.50701 2.43907,7.51948 4.85977,15.92707 7.03674,24.2755 -3.34346,-5.61291 -6.83331,-10.48162 -10.20523,-13.46864 -1.15834,-5.08075 -2.1259,-10.24 -2.71375,-15.31387 l 0,0 M 377.61338,97.190993 c 1.61126,1.51049 3.16004,3.114877 4.65252,4.789057 0.5022,7.46788 1.3977,15.55436 2.4504,23.46152 -1.55863,-3.21128 -3.39084,-6.45082 -5.52731,-9.68176 -0.79632,-6.97813 -1.35635,-13.45638 -1.57561,-18.568827 l 0,0 m 158.99707,-9.01211 c 0.74468,3.86897 1.28481,7.81138 1.63846,11.80726 -1.05635,3.483367 -1.76151,7.429277 -2.5411,11.588077 -0.2689,-6.20002 -0.46699,-12.454637 -0.5743,-18.541357 0.48327,-1.63082 0.94789,-3.24334 1.47694,-4.85398 l 0,0 m 343.79881,74.374677 c 1.45923,22.67323 -5.81771,46.70767 -12.83951,59.24263 l -19.29176,19.63453 c 5.38115,-15.04163 24.11688,-64.52429 32.13127,-78.87716 l 0,0 m -559.61943,-51.0419 c 0.19069,0.40354 0.39113,0.80376 0.57659,1.21213 -0.28178,0.12275 -0.43251,-0.61155 -0.57659,-1.21213 l 0,0 m 171.0856,-18.676747 c -0.90535,19.142747 -0.1647,64.155157 0.5834,79.033417 l -10.93557,-23.02901 c -1.19306,-13.96195 1.28547,-36.81244 10.35217,-56.004417 l 0,0 M 111.17347,201.12354 c 15.44252,14.65104 49.03337,51.70354 54.16031,62.17595 L 139.33237,246.7617 c -6.62827,-12.01024 -17.37853,-29.81846 -28.1589,-45.63816 l 0,0 M 443.60165,97.547773 c -0.1578,3.454777 -0.24085,7.134827 -0.22245,10.933897 -0.34129,-2.62031 -0.66432,-5.20397 -0.94533,-7.72865 0.37181,-1.073637 0.76166,-2.146417 1.16778,-3.205247 l 0,0 M 323.69386,118.33813 c 6.45587,16.93637 9.02482,36.55275 9.80369,49.99276 l -8.36162,1.98352 c -3.47586,-12.6374 -5.0384,-32.8943 -1.44207,-51.97628 l 0,0 m -65.04838,24.07366 c 11.11845,12.60183 18.71613,28.06261 22.75659,40.07637 l -8.15885,2.62945 c -3.17559,-11.49017 -8.62173,-28.22134 -14.59774,-42.70582 l 0,0 m 596.38745,24.54638 c -2.41045,7.40957 -5.6687,16.34063 -9.19038,25.14256 -0.89245,1.90665 -1.81831,3.77233 -2.71721,5.64084 1.59406,-5.00123 3.41404,-10.39024 5.33354,-15.81478 2.14906,-5.12106 4.38621,-10.2154 6.57405,-14.96862 l 0,0 m -14.01534,-3.50128 C 834.68,178.1202 828.96,193.0265 825.31114,203.55233 l -5.83989,-2.29387 c 3.3866,-10.53323 10.67525,-25.2103 21.54634,-37.80157 l 0,0 M 427.26517,120.36724 c 0.0625,0.43311 0.13738,0.89157 0.19927,1.33036 -0.0174,0.0766 -0.0542,0.15076 -0.0709,0.22716 -0.0468,-0.51508 -0.0856,-1.04116 -0.12838,-1.55752 l 0,0 m -70.19773,17.75139 c 1.40302,8.70654 3.03485,17.10917 4.59027,24.25675 l -1.29021,0.24077 c -1.39292,-4.34322 -2.59331,-10.68914 -3.38803,-18.15507 -0.0211,-2.07696 0.007,-4.18684 0.088,-6.34245 l 0,0 m -237.80809,103.32142 0.72287,0.90725 0.32275,0.53611 c 0.28138,0.39478 0.30617,0.42077 0.5664,0.78651 l -0.0778,0.0523 -0.48859,-0.83882 c -0.53534,-0.75106 -0.43202,-0.58225 -1.04562,-1.44336 l 0,0 m 1.13236,1.46035 0.58339,0.69978 -0.0519,0.0349 c -0.10196,-0.14594 -0.47467,-0.65238 -0.53152,-0.73465 l 0,0 m 805.67188,44.83736 -10.86635,8.80298 5.10982,3.30218 5.75653,-12.10516 0,0"
     id="path5847"
     style="fill:#4b7e1d"
     sodipodi:nodetypes="ccccccccccccccccccccscsccccccscccccccccscccccccccccccccccccccccccccccccccccsccccccccccccccccscscccsccscscccccccccccccccccccccccccccccccccccccsccccccsscccccccccccccccccccccccccccccccccccccccccccccccccccccccccccccccccccccccccccccccccccccccccccsscccssccccccccssccccccccccccccccsscccscsccccssccscccccccccccccscsscsccccccccccccccccccccccccccccccccccccccccccccccsccccccccccccccccccccccccccccccccccccccscccscscccccccccccccccccccscccccccccccccccccccccccccccccccccccccccccccccccccccccccccccccccccccccccccccccccccccccsccccccccccccccccccccccccccccccccccccccccccccccccccccccccccccccccccccccccccccccccccccccccccccccccccccccccccccccccccccccccccccccccccccccccccccccccccccccc" />
</svg>
